<svg width="40" height="25" viewBox="0 0 40 25" fill="none" xmlns="http://www.w3.org/2000/svg">
<g clip-path="url(#clip0_1111_340)">
<path d="M0.693359 25H39.9987V0H0.693359V25Z" fill="black"/>
<path d="M1.14844 24.5516H39.5797V0.455078H1.14844V24.5516Z" fill="white"/>
<path d="M9.62542 13.8027L10.3689 14.6566L11.1372 13.8084H11.7527V14.0705L10.7899 15.137L11.7527 16.2773V13.8084H13.4904C13.8191 13.8084 14.301 13.9606 14.301 14.6432C14.301 15.6008 13.6669 15.6122 13.3196 15.6122H12.4172V16.5394H11.131L10.3452 15.6308L9.54029 16.5327H6.9827V13.8022H9.62542V13.8027V13.8027ZM17.4983 13.8027H19.6901V14.3914H18.1691V14.9028H19.6478V15.4208H18.1691V15.9615H19.6901V16.5332H17.4983V13.8027V13.8027ZM15.289 16.5399H14.6183V13.8089H16.3617C16.6914 13.8089 17.1666 13.9555 17.1666 14.54C17.1666 14.8702 17.0691 15.1133 16.7033 15.2964C17.0201 15.3331 17.1423 15.5405 17.1423 15.979L17.1666 16.5399H16.5139L16.4959 16.0394C16.4902 15.8083 16.3983 15.5766 16.1672 15.5766H15.289V16.5399V16.5399ZM23.8993 14.8672C24.7243 14.9084 24.7924 15.3207 24.7924 15.7592C24.7924 16.2711 24.3719 16.5456 23.9328 16.5456H22.5248V15.961H23.6222C23.8085 15.961 24.0855 15.961 24.0855 15.6978C24.0855 15.573 24.0365 15.494 23.8384 15.4724C23.6844 15.4574 23.5301 15.4467 23.3756 15.4404C22.6311 15.4208 22.4582 15.0508 22.4582 14.5999C22.4582 14.0881 22.8178 13.8079 23.2569 13.8079H24.6649V14.3935H23.6346C23.4003 14.3966 23.147 14.3656 23.147 14.6314C23.147 14.7985 23.2724 14.8321 23.4303 14.8481C23.485 14.8486 23.8508 14.8672 23.8993 14.8672V14.8672ZM21.3876 14.8672C22.2121 14.9084 22.2807 15.3207 22.2807 15.7592C22.2807 16.2711 21.8597 16.5456 21.4211 16.5456H20.0126V15.961H21.11C21.2958 15.961 21.5739 15.961 21.5739 15.6978C21.5739 15.573 21.5248 15.494 21.3267 15.4724C21.238 15.46 20.9119 15.4414 20.8639 15.4404C20.1194 15.4208 19.9465 15.0508 19.9465 14.5999C19.9465 14.0881 20.3062 13.8079 20.7447 13.8079H22.1533V14.3935H21.1229C20.8882 14.3966 20.6353 14.3656 20.6353 14.6314C20.6353 14.7985 20.7602 14.8321 20.9191 14.8481C20.9733 14.8486 21.3391 14.8672 21.3876 14.8672V14.8672ZM12.5514 11.8457H11.8807V9.11479H13.6241C13.9532 9.11479 14.4295 9.26132 14.4295 9.8459C14.4295 10.1756 14.3319 10.4196 13.9661 10.6023C14.2829 10.6389 14.4052 10.8463 14.4052 11.2849L14.4295 11.8457H13.7773L13.7587 11.3458C13.7525 11.1141 13.6617 10.883 13.4295 10.883H12.5519V11.8457H12.5514V11.8457ZM14.771 11.8457H15.4412V9.11169H14.771V11.8457ZM9.30501 9.11479H11.4963V9.70298H9.97678V10.2153H11.4545V10.7339H9.97678V11.273H11.4963V11.8457H9.30501V9.11479V9.11479ZM4.41119 11.8457H5.76144V9.81907L6.65714 11.8457H7.267L8.18384 9.8526V11.8457H8.85407V9.11479H7.7845L6.96155 10.9469L6.1417 9.11479H5.09019V11.7451L3.91949 9.11479H3.03308L1.83813 11.8457H2.54551L2.8071 11.2364H4.14496L4.41119 11.8457V11.8457ZM19.2995 11.2379H17.9622L17.7001 11.8473H16.8157C16.0723 11.8473 15.7426 11.224 15.7586 10.4681C15.7813 9.34645 16.4443 9.11324 16.7492 9.11324H17.6242V9.70762H17.2099C16.7647 9.70762 16.4174 9.75406 16.4174 10.3938V10.592C16.4205 11.0733 16.6728 11.1874 16.8343 11.2209C16.874 11.2302 16.9473 11.2338 16.9741 11.2317L17.2641 11.2302L18.1877 9.11479H19.0751L20.2179 11.678V9.11324H21.2081L22.339 11.0042V9.11324H23.0092V11.8473H22.095L20.8882 9.84744V11.8473H19.5653L19.2995 11.2379V11.2379Z" fill="#00ACEC"/>
<path d="M24.6707 13.3828V1.22693H1.896V10.6266L2.7499 8.70103H4.20076L4.67647 9.84644V8.70103H6.44361L6.9802 9.83509L7.50441 8.70103H13.7345C13.9781 8.70103 14.3073 8.78668 14.4543 9.05446V8.70103H15.7586V9.11534C15.9294 8.88419 16.1853 8.70103 16.6848 8.70103H19.343L19.8305 9.80981V8.70103H21.4037L21.964 9.66431V8.70103H23.4025V12.2601H21.8546L21.2081 11.2122V12.2601H19.2454L18.9286 11.5651H18.3064L18.0139 12.2601H16.7823C16.514 12.2363 15.8928 12.1259 15.7586 11.7121V12.2601H13.3935V11.4805C13.3935 11.3701 13.296 11.2364 13.1618 11.2364H12.9059V12.2601H7.87022V11.4557L7.49254 12.2601H6.46837L6.07831 11.4433V12.2601H4.06661L3.79832 11.6265H3.15183L2.87166 12.2601H1.896V23.7571H24.6707V16.7107C24.5489 16.8454 24.3539 16.9547 24.0613 16.9547H22.1585V16.6864C22.0125 16.8454 21.8056 16.9547 21.4759 16.9547H16.1121V16.2112C16.0997 16.1132 16.1487 15.9063 15.8804 15.9063H15.6611V16.9547H14.2345V15.7469C14.088 15.992 13.7717 16.0033 13.5643 16.0157H12.8079V16.9547H10.9061L10.3571 16.284L9.77202 16.9547H6.54164V13.3828H9.82104L10.3937 14.0288L10.9794 13.3828H13.5761C13.7588 13.3941 14.106 13.4798 14.2345 13.6748V13.3828H16.4536C16.6486 13.3828 17.0263 13.4674 17.1852 13.7233V13.3828H19.9647V13.6991C20.1107 13.5046 20.3429 13.3828 20.6958 13.3828H22.4758V13.6877C22.61 13.4922 22.9639 13.3828 23.1713 13.3828H24.6707V13.3828ZM30.9385 13.0722C30.9385 13.5288 29.2002 13.0252 29.2002 14.1356C29.2002 14.6427 29.6104 14.8723 30.0717 14.8723C30.4354 14.8723 30.7146 14.797 30.9901 14.5406L31.0891 14.8017H31.9658C31.9157 14.7067 31.908 14.5829 31.908 14.4436V13.3013C31.908 12.7182 31.8378 12.2895 30.6821 12.2895C29.7172 12.2895 29.3488 12.5923 29.3488 13.1093H30.2812C30.3044 12.8999 30.4865 12.8725 30.6217 12.8725C30.7249 12.8725 30.9385 12.8957 30.9385 13.0722V13.0722ZM35.9825 14.4725V14.7991H36.8534V11.4423H35.8849V12.6032C35.6791 12.3607 35.4649 12.2864 35.1574 12.2864C34.5744 12.2864 34.1224 12.8127 34.1224 13.6243C34.1224 14.3141 34.4955 14.8687 35.2317 14.8687C35.5449 14.8687 35.7544 14.7712 35.9825 14.4725V14.4725ZM33.8712 13.1269V12.3003C33.8294 12.2957 33.7871 12.2864 33.7448 12.2864C33.3681 12.2864 33.1297 12.468 32.9946 12.8508H32.9853V12.3566H32.1045V14.7986H33.0735V13.8368C33.0735 13.31 33.2742 13.1233 33.6705 13.1233L33.8712 13.1269V13.1269ZM28.0848 12.7193C28.0517 12.3705 27.8325 12.1698 27.4878 12.1698C27.1008 12.1698 26.8676 12.501 26.8676 13.1485C26.8676 13.6196 26.9703 14.0618 27.5291 14.0618C27.884 14.0618 28.0517 13.8157 28.094 13.4937H29.1517C29.0547 14.3605 28.4341 14.8816 27.5492 14.8816C26.4399 14.8816 25.7681 14.2026 25.7681 13.1109C25.7681 12.0248 26.5044 11.3489 27.4419 11.3489C28.4671 11.3489 29.0408 11.8571 29.1296 12.7188H28.0848V12.7193V12.7193Z" fill="#00ACEC"/>
<path d="M12.4179 15.0524H13.2532C13.5272 15.0524 13.6247 14.8935 13.6247 14.7109C13.6247 14.5767 13.5365 14.3977 13.2558 14.3977H12.4179V15.0524ZM9.17458 14.3915H7.65407V14.9028H9.13176V15.4208H7.65407V15.9615H9.19935L9.93716 15.1375L9.28448 14.3941L9.17458 14.3915ZM15.2891 15.0163H16.1245C16.3984 15.0163 16.496 14.894 16.496 14.7109C16.496 14.5767 16.4077 14.3977 16.1271 14.3977H15.2891V15.0163V15.0163ZM12.5515 10.3222H13.3868C13.6613 10.3222 13.7583 10.2004 13.7583 10.0172C13.7583 9.8836 13.6701 9.70301 13.3894 9.70301H12.5515V10.3222V10.3222ZM3.88606 10.6488H3.06982L3.4702 9.69373L3.88606 10.6488ZM18.6238 9.69527L18.2244 10.6498H19.0437L18.6238 9.69527Z" fill="white"/>
<path d="M38.6571 15.5472L30.4529 23.7509H31.6179L38.6571 16.7123V15.5472Z" fill="#3B4095"/>
<path d="M38.6572 17.8427L32.7495 23.7508H33.9135L38.6572 19.0082V17.8427Z" fill="#00ACEC"/>
<path d="M38.6572 20.1387L35.0439 23.7509H36.21L38.6572 21.3032V20.1387Z" fill="#6CB35E"/>
<path d="M25.5039 22.4589C25.5042 22.2886 25.5382 22.12 25.6037 21.9627C25.6692 21.8055 25.7651 21.6627 25.8859 21.5425C26.0066 21.4223 26.1499 21.3271 26.3074 21.2623C26.465 21.1975 26.6338 21.1644 26.8041 21.1649C26.9741 21.1648 27.1424 21.1982 27.2995 21.2631C27.4565 21.3281 27.5992 21.4234 27.7194 21.5436C27.8396 21.6638 27.9349 21.8065 27.9999 21.9636C28.0649 22.1206 28.0983 22.289 28.0981 22.4589C28.0989 22.6294 28.066 22.7983 28.0013 22.956C27.9366 23.1137 27.8414 23.2571 27.7212 23.378C27.601 23.4988 27.4581 23.5947 27.3007 23.6602C27.1433 23.7257 26.9746 23.7595 26.8041 23.7597C26.6333 23.7599 26.4641 23.7263 26.3062 23.661C26.1483 23.5957 26.0049 23.4999 25.8841 23.3791C25.7633 23.2583 25.6676 23.1148 25.6023 22.9569C25.5371 22.799 25.5036 22.6298 25.5039 22.4589V22.4589Z" fill="#00ACEC"/>
<path d="M27.9418 22.4589C27.9418 22.3095 27.9125 22.1616 27.8553 22.0236C27.7982 21.8855 27.7143 21.7601 27.6087 21.6545C27.503 21.5489 27.3776 21.4651 27.2395 21.4081C27.1015 21.351 26.9535 21.3216 26.8041 21.3218C26.6545 21.3214 26.5063 21.3505 26.3679 21.4074C26.2295 21.4644 26.1038 21.5481 25.9978 21.6537C25.8919 21.7593 25.8078 21.8848 25.7504 22.023C25.693 22.1612 25.6634 22.3093 25.6633 22.4589C25.6633 22.7611 25.7834 23.0508 25.997 23.2645C26.2106 23.4781 26.5004 23.5982 26.8026 23.5982C27.1047 23.5982 27.3945 23.4781 27.6081 23.2645C27.8218 23.0508 27.9418 22.7611 27.9418 22.4589V22.4589Z" fill="white"/>
<path d="M27.4491 23.186H27.2391L26.8238 22.5168H26.4987V23.186H26.3218V21.7351H26.9533C27.0756 21.7351 27.1979 21.7423 27.3067 21.8068C27.4156 21.8682 27.4693 21.9972 27.4693 22.119C27.4693 22.4048 27.2696 22.5101 27.0111 22.5168L27.4491 23.186V23.186Z" fill="#00ACEC"/>
<path d="M26.7707 22.3774C26.9745 22.3774 27.2902 22.4115 27.2902 22.1153C27.2902 21.8914 27.0931 21.8646 26.9131 21.8646H26.4993V22.3774H26.7707ZM30.9385 13.7203C30.9411 14.1774 30.8008 14.3219 30.4608 14.3219C30.2693 14.3219 30.1527 14.2378 30.1527 14.117C30.1532 13.7992 30.6223 13.874 30.9385 13.7203V13.7203ZM35.9175 13.6011C35.9175 13.8848 35.8107 14.1691 35.4748 14.1691C35.1585 14.1691 35.0935 13.8714 35.0935 13.6145C35.0935 13.3452 35.1817 13.0366 35.5037 13.0366C35.8246 13.0366 35.9175 13.3302 35.9175 13.6011Z" fill="white"/>
</g>
<defs>
<clipPath id="clip0_1111_340">
<rect width="39.3082" height="25" fill="white" transform="translate(0.691895)"/>
</clipPath>
</defs>
</svg>
