<svg width="50" height="15" viewBox="0 0 50 15" fill="none" xmlns="http://www.w3.org/2000/svg">
<g clip-path="url(#clip0_1111_357)">
<path d="M8.43412 2.88254C8.92234 2.27226 9.24579 1.46059 9.16645 0.642822C8.45243 0.679439 7.59194 1.11274 7.08541 1.71081C6.63381 2.22344 6.23102 3.07783 6.34698 3.86509C7.14034 3.94442 7.9398 3.47451 8.43412 2.88254V2.88254ZM10.1917 8.0882C10.1734 6.3123 11.6442 5.47622 11.7113 5.42129C10.8874 4.19463 9.59365 4.05427 9.15425 4.02986C8.00083 3.96273 7.03049 4.68286 6.47513 4.68286C5.91978 4.68286 5.0837 4.06648 4.17439 4.07258C2.98435 4.09089 1.84923 4.7683 1.24506 5.83628C9.40033e-05 7.97225 0.958229 11.1457 2.16658 12.8728C2.75855 13.7333 3.46036 14.6914 4.38188 14.6487C5.26068 14.6121 5.60854 14.075 6.66432 14.075C7.7201 14.075 8.03744 14.6487 8.96506 14.6304C9.9293 14.6121 10.5396 13.7699 11.1071 12.9094C11.7784 11.9268 12.0531 10.9931 12.0714 10.9321C12.0531 10.9077 10.21 10.1937 10.1917 8.0882V8.0882ZM30.337 4.94528C28.0179 4.94528 26.5655 6.17804 26.4556 7.87461H28.2742C28.4451 7.03242 29.1469 6.51369 30.2576 6.51369C31.4355 6.51369 32.1495 7.14227 32.1495 8.18585V8.91818L29.5741 9.06465C27.3405 9.1867 26.0711 10.2059 26.0711 11.8475C26.0711 13.5441 27.3649 14.6853 29.1957 14.6853C30.4285 14.6853 31.6308 14.0201 32.1739 12.9704H32.2349V14.5266H34.0658V8.05159C34.0719 6.15973 32.6194 4.94528 30.337 4.94528V4.94528ZM32.1495 11.0114C32.1495 12.2381 31.0937 13.1657 29.745 13.1657C28.7075 13.1657 28.024 12.6348 28.024 11.7987C28.024 10.9931 28.677 10.4805 29.8426 10.4012L32.1556 10.2608V11.0114H32.1495ZM48.0472 1.58875V6.68457H48.0228C47.4919 5.64709 46.4056 4.96358 45.0568 4.96358C42.6951 4.96358 41.1145 6.85544 41.1145 9.82139C41.1145 12.7873 42.6951 14.6914 45.0752 14.6914C46.4483 14.6914 47.5224 13.9957 48.0777 12.9216L48.1082 12.946V14.5327H50.0001V1.58875H48.0472ZM45.5817 13.0498C44.0438 13.0498 43.104 11.8048 43.104 9.82139C43.104 7.84409 44.0682 6.59302 45.5817 6.59302C47.0708 6.59302 48.0533 7.87461 48.0533 9.82139C48.0594 11.7926 47.0708 13.0498 45.5817 13.0498ZM37.8312 6.72118H37.7946V5.06733H35.9637V14.5266H37.9166V8.89377C37.9166 7.55726 38.6367 6.73339 39.8817 6.73339C40.254 6.73339 40.6323 6.78221 40.7849 6.83713V5.03682C40.6445 5.0063 40.3699 4.96358 40.0892 4.96358C38.9846 4.96358 38.1424 5.61658 37.8312 6.72118V6.72118ZM19.6754 12.9948C17.3076 12.9948 15.8002 11.0969 15.8002 8.06989C15.8002 5.08564 17.3259 3.15716 19.6632 3.15716C21.4208 3.15716 22.7878 4.27397 23.154 5.92172H25.1374C24.8018 3.2365 22.5925 1.39957 19.6632 1.39957C16.0565 1.39957 13.7557 3.97493 13.7557 8.06379C13.7557 12.1832 16.0382 14.7341 19.6632 14.7341C22.6292 14.7341 24.6614 13.1535 25.1496 10.4988H23.154C22.7512 12.0733 21.4818 12.9948 19.6754 12.9948V12.9948Z" fill="black"/>
</g>
<defs>
<clipPath id="clip0_1111_357">
<rect width="50" height="14.34" fill="white" transform="translate(0 0.521484)"/>
</clipPath>
</defs>
</svg>
