<svg width="89" height="16" viewBox="0 0 89 16" fill="none" xmlns="http://www.w3.org/2000/svg">
<g clip-path="url(#clip0_1111_336)">
<path d="M16.4856 6.89278C16.4769 6.58729 16.3285 6.43018 16.0492 6.42145H14.548C14.1901 6.43891 14.0068 6.63966 13.9981 7.00625V9.70328C14.0068 10.0786 14.2076 10.2706 14.6003 10.2881H15.9707C16.1103 10.2881 16.2325 10.2357 16.3285 10.131C16.4246 10.0524 16.4769 9.94767 16.4769 9.81674L16.4856 6.89278V6.89278ZM12.0779 6.50874C12.0866 5.83666 12.235 5.32169 12.5317 4.97256C12.6801 4.82418 12.8722 4.70199 13.1078 4.59725C13.3522 4.49251 13.5791 4.44014 13.8061 4.44014H16.5555C17.7687 4.44887 18.3884 5.11221 18.4059 6.43018V10.4888C18.3971 10.9601 18.2138 11.3616 17.856 11.702C17.5069 12.0599 17.0879 12.2432 16.5991 12.2519H13.9981V15.1759H12.0779V6.50874ZM21.8884 9.88657C21.8884 10 21.9408 10.0873 22.0455 10.1571C22.1328 10.2357 22.255 10.2793 22.3947 10.2793H23.8698C24.2014 10.2793 24.376 10.1484 24.3847 9.88657V9.33669C24.3847 9.0312 24.2102 8.88282 23.8523 8.88282H22.3859C22.1939 8.88282 22.063 8.91773 21.9844 8.97883C21.9146 9.04866 21.8797 9.18831 21.8797 9.39779L21.8884 9.88657V9.88657ZM24.3934 6.84041C24.4022 6.54365 24.2276 6.404 23.8785 6.41272H20.0031V4.44014H24.3673C25.6416 4.4576 26.2875 5.0773 26.3049 6.29053V10.4277C26.2962 10.9514 26.1304 11.3791 25.8249 11.7282C25.5019 12.0861 25.083 12.2607 24.568 12.2607H21.9321C20.649 12.2519 19.9944 11.6671 19.9769 10.4975V8.90028C19.9857 7.67832 20.6054 7.05862 21.8448 7.04116H24.4022L24.3934 6.84041M31.7077 13.2033C31.8561 13.1946 31.9958 13.1422 32.1005 13.0375C32.2052 12.9415 32.2576 12.8367 32.2576 12.7233V12.2519H29.7962C29.4733 12.2519 29.2202 12.2083 29.0281 12.1297C28.8274 12.0599 28.6266 11.9203 28.4172 11.7195C28.2252 11.51 28.0855 11.2918 27.9982 11.0649C27.9109 10.8554 27.8673 10.5936 27.8673 10.2706V4.44014H29.7962V9.65091C29.7962 10.0699 29.9708 10.2793 30.3112 10.2793H31.6728C31.8386 10.2793 31.9783 10.227 32.0918 10.1222C32.2052 10.0262 32.2576 9.92148 32.2576 9.79056V4.44014H34.1691V13.0549C34.1604 13.6921 33.9945 14.2071 33.6803 14.5911C33.3574 14.9751 32.9209 15.1759 32.3623 15.1846H27.8673V13.2033H31.7077M35.6791 10.2793H39.1093C39.4235 10.2706 39.5893 10.1397 39.5981 9.90403V9.72946C39.5981 9.67709 39.5806 9.62472 39.5544 9.56362C39.4759 9.41524 39.3799 9.33669 39.2751 9.33669H37.5644C37.0581 9.32796 36.6305 9.1534 36.2639 8.81299C35.8973 8.49878 35.714 8.12346 35.6965 7.66959V6.19452C35.714 5.04239 36.3424 4.4576 37.5731 4.44014H41.5532V6.42145H38.1841C37.7913 6.42145 37.5906 6.54365 37.5906 6.78804V6.98006C37.5906 7.23318 37.7913 7.35538 38.2015 7.35538H39.8948C40.3487 7.3641 40.7327 7.53867 41.0557 7.87907C41.3786 8.21947 41.5445 8.62097 41.5619 9.0923V10.5325C41.5532 10.934 41.3612 11.3442 41.0033 11.7457C40.8287 11.9464 40.6455 12.0774 40.4709 12.1559C40.2876 12.2257 40.0345 12.2607 39.7115 12.2607H35.6878L35.6791 10.2793M44.8525 9.88657C44.8525 10 44.9048 10.0873 45.0096 10.1571C45.0969 10.2357 45.2103 10.2793 45.3587 10.2793H46.8425C47.1742 10.2793 47.3488 10.1484 47.3575 9.88657V9.33669C47.3575 9.0312 47.1829 8.88282 46.8251 8.88282H45.3587C45.1667 8.88282 45.0358 8.91773 44.9572 8.97883C44.8874 9.04866 44.8525 9.18831 44.8525 9.39779V9.88657V9.88657ZM47.3575 6.84041C47.3662 6.54365 47.1916 6.404 46.8338 6.41272H42.9584V4.44014H47.3226C48.5969 4.4576 49.2428 5.0773 49.2602 6.29053V10.4277C49.2515 10.9514 49.0857 11.3791 48.7802 11.7282C48.4572 12.0861 48.0383 12.2607 47.5233 12.2607H44.8787C43.5956 12.2519 42.941 11.6671 42.9235 10.4975V8.90028C42.9323 7.67832 43.552 7.05862 44.7914 7.04116H47.3575V6.84041M50.8313 3.31419C50.8401 2.78177 51.0408 2.35409 51.4248 2.03114C51.8002 1.7082 52.2889 1.53363 52.8999 1.5249H54.1219V3.43639H53.38C52.9697 3.44512 52.769 3.63714 52.7603 4.02118V4.44014H54.1219V6.42145H52.7603V12.2607H50.8313V3.31419ZM59.5945 6.8055V6.76185C59.5945 6.65712 59.5508 6.56983 59.4723 6.50874C59.385 6.44764 59.2715 6.41272 59.1406 6.41272H57.7965C57.6219 6.41272 57.4823 6.46509 57.3775 6.5611C57.2466 6.64839 57.1768 6.77058 57.1768 6.91896V7.71323L59.5945 6.8055V6.8055ZM57.2117 9.60727V9.72946C57.2117 9.88657 57.2553 10.0175 57.3339 10.1048C57.395 10.2182 57.4735 10.2793 57.587 10.2793H61.5409V12.2607H57.3339C56.9498 12.2607 56.6531 12.2257 56.4436 12.1559C56.2167 12.0774 56.0072 11.9552 55.8239 11.7806C55.6144 11.5711 55.466 11.3616 55.3962 11.1347C55.3176 10.9078 55.274 10.6023 55.274 10.227L55.2565 6.26434C55.274 5.06857 55.9024 4.4576 57.1331 4.44014H59.7341C60.9299 4.4576 61.5409 5.09476 61.5583 6.33417V7.89653L57.2117 9.60727M65.6344 12.2607C65.3464 12.2607 65.0758 12.2345 64.8314 12.1821C64.5783 12.1385 64.3252 12.025 64.0721 11.8242C63.8102 11.5973 63.6269 11.3355 63.5222 11.0474C63.4175 10.7681 63.3651 10.4452 63.3651 10.096V6.404C63.3564 6.10724 63.3826 5.83666 63.4524 5.60973C63.5135 5.38279 63.6531 5.15586 63.8626 4.93765C64.0983 4.71071 64.3339 4.55361 64.587 4.47505C64.8314 4.41395 65.102 4.37904 65.4075 4.37904H68.3577V4.84164H65.4773C64.9711 4.84164 64.5696 4.94638 64.2728 5.15586C63.9761 5.38279 63.819 5.77556 63.819 6.33417V10.0262C63.819 10.2881 63.8626 10.5412 63.9412 10.7856C64.0197 11.0212 64.1594 11.2394 64.3514 11.4227C64.5609 11.5799 64.7703 11.6846 64.9711 11.7195C65.1806 11.7631 65.4075 11.7893 65.6519 11.7893H68.4013V12.2519H65.6344M75.9512 7.46884H72.0846C71.622 7.47757 71.2554 7.62595 70.9936 7.89653C70.723 8.17583 70.5921 8.55988 70.5921 9.04866V10.227C70.5921 10.4539 70.6183 10.6634 70.6619 10.8554C70.7143 11.0562 70.8278 11.2307 71.0198 11.3791C71.3514 11.6584 71.7268 11.7893 72.1283 11.7893H74.4849C75.4625 11.7806 75.96 11.2656 75.96 10.2357L75.9512 7.46884V7.46884ZM76.4138 10.131C76.4138 10.4277 76.3877 10.6896 76.3527 10.9165C76.2916 11.1696 76.1607 11.4053 75.9687 11.6322C75.5672 12.0599 75.061 12.2694 74.4674 12.2519H72.1632C71.5609 12.2519 71.0809 12.0774 70.7056 11.7195C70.3215 11.3704 70.1295 10.8816 70.1295 10.2532V9.06611C70.1469 7.72196 70.819 7.03243 72.137 7.00625H75.9687V6.48255C75.9687 6.05487 75.8465 5.67955 75.5934 5.35661C75.4363 5.14713 75.253 5.00748 75.0435 4.93765C74.834 4.88528 74.5896 4.85037 74.3278 4.85037H70.1469V4.38777H74.1096C74.4762 4.38777 74.7991 4.41395 75.0959 4.46632C75.2442 4.49251 75.3839 4.55361 75.5148 4.64089C75.6545 4.71944 75.7767 4.84164 75.8901 4.99875C76.248 5.46134 76.4226 5.98504 76.4138 6.57856V10.131M80.743 4.85037C79.6695 4.86782 79.137 5.45262 79.1632 6.60475V12.2519H78.7006V6.61347C78.6745 5.12967 79.3814 4.38777 80.8216 4.38777H81.3366V4.85037H80.743ZM88.5374 4.85037H84.889C84.6271 4.85037 84.3915 4.87655 84.182 4.93765C83.9638 4.99002 83.7456 5.12094 83.5448 5.33915C83.3528 5.5399 83.2306 5.74065 83.1782 5.93267C83.1084 6.13342 83.0822 6.36908 83.0909 6.64839V10.2532C83.0909 10.8554 83.2655 11.2569 83.6146 11.4751C83.7892 11.5799 83.9812 11.6497 84.1907 11.702C84.4002 11.7544 84.6446 11.7893 84.8977 11.7893H86.495C87.0885 11.7893 87.5773 11.6497 87.9526 11.3791C88.3279 11.1173 88.5199 10.6721 88.5374 10.0349V4.85037V4.85037ZM89 10.0699C88.9563 11.5624 88.1708 12.2956 86.6346 12.2607H84.9239C84.566 12.2607 84.2431 12.2257 83.955 12.1734C83.6583 12.0948 83.379 11.9203 83.1084 11.6409C82.9077 11.3878 82.7767 11.1347 82.7244 10.8729C82.6545 10.611 82.6196 10.323 82.6371 10.0088V6.64839C82.6545 5.1384 83.4226 4.37904 84.9239 4.3965H88.5461V1.83912H89.0087V10.0699" fill="#008AC9"/>
<path d="M1.38577 4.14341C1.53415 4.07359 1.69126 4.02122 1.83964 3.99503C2.11895 2.66834 3.29726 1.67332 4.70251 1.67332C6.11649 1.67332 7.28607 2.66834 7.56538 3.99503C8.00179 4.07359 8.35965 4.24815 8.63022 4.51C8.63895 4.25688 8.63022 4.01249 8.60404 3.77683C8.42947 1.76933 6.74492 0.198242 4.69378 0.198242C2.58154 0.198242 0.862077 1.87407 0.774795 3.96012C0.766067 4.14341 0.757338 4.32671 0.766067 4.52746C0.940632 4.37908 1.14138 4.24815 1.38577 4.14341Z" fill="#E3001B"/>
<path d="M6.98936 4.44019H2.28483C2.0579 4.44019 1.82224 4.49256 1.58657 4.59729C1.35091 4.70203 1.15889 4.82423 1.01051 4.97261C0.722477 5.32174 0.565369 5.83671 0.556641 6.50878V10.1834C0.565369 10.8555 0.713749 11.3704 1.01051 11.7195C1.16762 11.8679 1.35091 11.9901 1.58657 12.0949C1.83097 12.1996 2.06663 12.252 2.28483 12.252H6.98936C8.20259 12.2432 8.8223 11.5712 8.83975 10.2532V6.43023C8.8223 5.11226 8.20259 4.44891 6.98936 4.44019" fill="#E3001B"/>
</g>
<defs>
<clipPath id="clip0_1111_336">
<rect width="88.4434" height="15" fill="white" transform="translate(0.556641 0.191406)"/>
</clipPath>
</defs>
</svg>
